<svg height="478" width="720" xmlns="http://www.w3.org/2000/svg">
<rect height="478" fill="#555" width="720"></rect>
<text fill="#7f7" font-family="Courier New" font-size="12" xml:space="preserve">
<tspan x="10" y="26">2 megabytes installed</tspan>
<tspan x="10" y="42"></tspan>
<tspan x="10" y="58">node_modules</tspan>
<tspan x="10" y="74">├── UNMET PEER DEPENDENCY browserify@&gt;= 10.x</tspan>
<tspan x="10" y="90">├─┬ tsify@3.0.1 </tspan>
<tspan x="10" y="106">│ ├── convert-source-map@1.5.0 </tspan>
<tspan x="10" y="122">│ ├── fs.realpath@1.0.0 </tspan>
<tspan x="10" y="138">│ ├── object-assign@4.1.1 </tspan>
<tspan x="10" y="154">│ ├── semver@5.3.0 </tspan>
<tspan x="10" y="170">│ ├─┬ through2@2.0.3 </tspan>
<tspan x="10" y="186">│ │ ├─┬ readable-stream@2.2.9 </tspan>
<tspan x="10" y="202">│ │ │ ├── buffer-shims@1.0.0 </tspan>
<tspan x="10" y="218">│ │ │ ├── core-util-is@1.0.2 </tspan>
<tspan x="10" y="234">│ │ │ ├── inherits@2.0.3 </tspan>
<tspan x="10" y="250">│ │ │ ├── isarray@1.0.0 </tspan>
<tspan x="10" y="266">│ │ │ ├── process-nextick-args@1.0.7 </tspan>
<tspan x="10" y="282">│ │ │ ├── string_decoder@1.0.0 </tspan>
<tspan x="10" y="298">│ │ │ └── util-deprecate@1.0.2 </tspan>
<tspan x="10" y="314">│ │ └── xtend@4.0.1 </tspan>
<tspan x="10" y="330">│ └─┬ tsconfig@5.0.3 </tspan>
<tspan x="10" y="346">│   ├── any-promise@1.3.0 </tspan>
<tspan x="10" y="362">│   ├─┬ parse-json@2.2.0 </tspan>
<tspan x="10" y="378">│   │ └─┬ error-ex@1.3.1 </tspan>
<tspan x="10" y="394">│   │   └── is-arrayish@0.2.1 </tspan>
<tspan x="10" y="410">│   ├─┬ strip-bom@2.0.0 </tspan>
<tspan x="10" y="426">│   │ └── is-utf8@0.2.1 </tspan>
<tspan x="10" y="442">│   └── strip-json-comments@2.0.1 </tspan>
<tspan x="10" y="458">└── UNMET PEER DEPENDENCY typescript@&gt;= 2.x</tspan>
</text>
</svg>
